<svg width="30" height="30" viewBox="0 0 16 16" fill="none" xmlns="http://www.w3.org/2000/svg">
<path d="M7.99943 1.32867C4.32343 1.32934 1.33276 4.32001 1.33276 7.99601C1.33276 11.672 4.32343 14.6627 8.0001 14.6627C11.6754 14.6627 14.6661 11.672 14.6668 7.99601C14.6668 4.32001 11.6761 1.32934 7.99943 1.32867ZM8.0001 13.3293C5.05876 13.3293 2.6661 10.9367 2.6661 7.99601C2.6661 5.05534 5.05876 2.66267 7.99943 2.66201C10.9408 2.66267 13.3334 5.05534 13.3334 7.99601C13.3328 10.9367 10.9401 13.3293 8.0001 13.3293Z" fill="white"/>
<path d="M7.99992 7.32933H5.33325V8.66267H7.99992V10.6667L10.6699 7.99666L7.99992 5.32733V7.32933Z" fill="white"/>
</svg>
