<svg width="14" height="14" viewBox="0 0 14 14" fill="none" xmlns="http://www.w3.org/2000/svg">
<path d="M11.6665 1.75H2.33317C2.02375 1.75 1.72701 1.87292 1.50821 2.09171C1.28942 2.3105 1.1665 2.60725 1.1665 2.91667V4.08333C1.16773 4.28693 1.22222 4.48667 1.32456 4.66268C1.42689 4.8387 1.57351 4.98487 1.74984 5.08667V11.0833C1.74984 11.3928 1.87275 11.6895 2.09155 11.9083C2.31034 12.1271 2.60708 12.25 2.9165 12.25H11.0832C11.3926 12.25 11.6893 12.1271 11.9081 11.9083C12.1269 11.6895 12.2498 11.3928 12.2498 11.0833V5.08667C12.4262 4.98487 12.5728 4.8387 12.6751 4.66268C12.7775 4.48667 12.8319 4.28693 12.8332 4.08333V2.91667C12.8332 2.60725 12.7103 2.3105 12.4915 2.09171C12.2727 1.87292 11.9759 1.75 11.6665 1.75ZM2.33317 2.91667H11.6665V4.08333H2.33317V2.91667ZM2.9165 11.0833V5.25H11.0832V11.0833H2.9165Z" fill="black"/>
<path d="M4.6665 6.41666H9.33317V7.58333H4.6665V6.41666Z" fill="black"/>
</svg>
