<svg width="13" height="13" viewBox="0 0 13 13" fill="none" xmlns="http://www.w3.org/2000/svg">
<path d="M6.50016 7.58333C7.69508 7.58333 8.66683 6.61158 8.66683 5.41667C8.66683 4.22175 7.69508 3.25 6.50016 3.25C5.30525 3.25 4.3335 4.22175 4.3335 5.41667C4.3335 6.61158 5.30525 7.58333 6.50016 7.58333ZM6.50016 4.33333C7.09762 4.33333 7.5835 4.81921 7.5835 5.41667C7.5835 6.01413 7.09762 6.5 6.50016 6.5C5.9027 6.5 5.41683 6.01413 5.41683 5.41667C5.41683 4.81921 5.9027 4.33333 6.50016 4.33333Z" fill="black"/>
<path d="M6.18572 11.8159C6.27739 11.8814 6.38723 11.9166 6.49988 11.9166C6.61254 11.9166 6.72238 11.8814 6.81405 11.8159C6.97872 11.6995 10.8489 8.90499 10.8332 5.41666C10.8332 3.02737 8.88918 1.08333 6.49988 1.08333C4.11059 1.08333 2.16655 3.02737 2.16655 5.41395C2.15084 8.90499 6.02105 11.6995 6.18572 11.8159ZM6.49988 2.16666C8.29226 2.16666 9.74988 3.62429 9.74988 5.41937C9.76126 7.82329 7.37305 9.98183 6.49988 10.6898C5.62726 9.98129 3.23851 7.8222 3.24988 5.41666C3.24988 3.62429 4.70751 2.16666 6.49988 2.16666Z" fill="black"/>
</svg>
